HIERARCHY
ROOT Hips
{
	OFFSET -3.958830 18.904000 13.208200
	CHANNELS 6 Xposition Yposition Zposition Zrotation Yrotation Xrotation 
	JOINT LHipJoint
	{
		OFFSET 0.000000 0.000000 0.000000
		CHANNELS 3 Zrotation Yrotation Xrotation
		JOINT LeftUpLeg
		{
			OFFSET 1.800000 -1.400000 0.085000
			CHANNELS 3 Zrotation Yrotation Xrotation
			JOINT LeftLeg
			{
				OFFSET 2.215000 -6.000000 0.000000
				CHANNELS 3 Zrotation Yrotation Xrotation
				JOINT LeftFoot
				{
					OFFSET 2.500000 -6.900000 0.000000
					CHANNELS 3 Zrotation Yrotation Xrotation
					JOINT LeftToeBase
					{
						OFFSET 0.200000 -0.500000 1.950000
						CHANNELS 3 Zrotation Yrotation Xrotation
						End Site
						{
							OFFSET 0.000000 0.000000 0.000000
						}
					}
				}
			}
		}
	}
	JOINT RHipJoint
	{
		OFFSET 0.000000 0.000000 0.000000
		CHANNELS 3 Zrotation Yrotation Xrotation
		JOINT RightUpLeg
		{
			OFFSET -1.800000 -1.400000 0.085000
			CHANNELS 3 Zrotation Yrotation Xrotation
			JOINT RightLeg
			{
				OFFSET -2.215000 -6.000000 0.000000
				CHANNELS 3 Zrotation Yrotation Xrotation
				JOINT RightFoot
				{
					OFFSET -2.500000 -6.900000 0.000000
					CHANNELS 3 Zrotation Yrotation Xrotation
					JOINT RightToeBase
					{
						OFFSET -0.200000 -0.500000 1.950000
						CHANNELS 3 Zrotation Yrotation Xrotation
						End Site
						{
							OFFSET 0.000000 0.000000 0.000000
						}
					}
				}
			}
		}
	}
	JOINT LowerBack
	{
		OFFSET 0.000000 0.000000 0.000000
		CHANNELS 3 Zrotation Yrotation Xrotation
		JOINT Spine
		{
			OFFSET -0.087000 1.940000 -0.288900
			CHANNELS 3 Zrotation Yrotation Xrotation
			JOINT Spine1
			{
				OFFSET 0.000000 1.950000 0.060000
				CHANNELS 3 Zrotation Yrotation Xrotation
				JOINT Neck
				{
					OFFSET 0.000000 0.000000 0.000000
					CHANNELS 3 Zrotation Yrotation Xrotation
					JOINT Neck1
					{
						OFFSET 0.000000 1.600000 0.340000
						CHANNELS 3 Zrotation Yrotation Xrotation
						JOINT Head
						{
							OFFSET 0.000000 1.667000 -0.240000
							CHANNELS 3 Zrotation Yrotation Xrotation
							End Site
							{
								OFFSET 0.000000 0.000000 0.000000
							}
						}
					}
				}
				JOINT LeftShoulder
				{
					OFFSET 0.000000 0.000000 0.000000
					CHANNELS 3 Zrotation Yrotation Xrotation
					JOINT LeftArm
					{
						OFFSET 2.700000 1.550000 -0.730000
						CHANNELS 3 Zrotation Yrotation Xrotation
						JOINT LeftForeArm
						{
							OFFSET 5.450000 0.000000 0.000000
							CHANNELS 3 Zrotation Yrotation Xrotation
							JOINT LeftHand
							{
								OFFSET 3.450000 0.000000 0.000000
								CHANNELS 3 Zrotation Yrotation Xrotation
								JOINT LeftHandIndex1
								{
									OFFSET 0.750000 0.000000 0.000000
									CHANNELS 3 Zrotation Yrotation Xrotation
									End Site
									{
										OFFSET 0.000000 0.000000 0.000000
									}
								}
							}
						}
					}
				}
				JOINT RightShoulder
				{
					OFFSET 0.000000 0.000000 0.000000
					CHANNELS 3 Zrotation Yrotation Xrotation
					JOINT RightArm
					{
						OFFSET -2.700000 1.550000 -0.730000
						CHANNELS 3 Zrotation Yrotation Xrotation
						JOINT RightForeArm
						{
							OFFSET -5.450000 0.000000 0.000000
							CHANNELS 3 Zrotation Yrotation Xrotation
							JOINT RightHand
							{
								OFFSET -3.450000 0.000000 0.000000
								CHANNELS 3 Zrotation Yrotation Xrotation
								JOINT RightHandIndex1
								{
									OFFSET -0.750000 0.000000 0.000000
									CHANNELS 3 Zrotation Yrotation Xrotation
									End Site
									{
										OFFSET 0.000000 0.000000 0.000000
									}
								}
							}
						}
					}
				}
			}
		}
	}
}
MOTION
Frames: 4
Frame Time: 0.016667
0.142820 17.004330 -0.751040 -5.738073 6.778399 0.928917 -15.518965 12.697748 3.184239 5.108569 0.648756 1.012121 -8.434723 4.125302 -3.815985 0.218081 4.560733 3.243451 -0.056210 -0.171660 -0.115220 17.948019 -10.364769 2.845394 -22.077080 -0.229147 -14.352526 4.290780 -3.428352 -0.105511 -0.128945 -3.695760 3.069772 -0.084100 0.373290 0.183220 -2.728960 -1.390390 -7.705008 -0.408741 0.975816 2.763272 6.124703 -0.516339 10.714781 1.007269 2.333836 -15.105147 2.553757 -1.158862 37.927469 -1.889310 0.738010 2.367060 -22.026866 -24.832183 9.566889 -39.280274 -7.925255 -0.917530 -36.538430 -22.770607 4.664923 -3.872769 3.221135 0.105250 0.255820 -0.128560 0.116100 21.190566 24.216545 11.428155 38.124592 3.262630 -4.602435 26.282875 24.111163 2.473429 2.285846 -1.461907 -0.118770 0.123490 0.142190 -0.000520 
0.169610 17.000580 -0.759980 -5.800292 6.925866 0.978539 -15.502893 12.727290 3.201781 5.034236 0.616219 0.810237 -8.601294 4.155175 -3.671078 0.221025 4.549190 3.250928 -0.056460 -0.168190 -0.121420 17.956673 -10.391100 2.827840 -21.630620 -0.225789 -14.644982 4.322358 -3.417308 0.209583 -0.115651 -3.637351 3.092087 -0.081600 0.379170 0.181600 -2.769583 -1.413636 -7.723494 0.154701 0.824089 3.014716 5.783036 -0.598520 10.670021 1.004272 2.141410 -15.112408 2.166845 -1.087345 37.640679 -1.827850 0.621030 2.444100 -22.345664 -25.000369 9.559233 -39.053188 -7.992727 -0.935109 -36.529288 -22.753846 4.660604 -3.867799 3.227237 0.097270 0.257050 -0.131080 0.123040 21.462517 24.452297 11.499532 37.949380 3.193595 -4.596896 26.063298 23.880576 2.386666 2.289620 -1.465194 -0.117930 0.125450 0.138030 0.006970 
0.197910 16.998130 -0.773920 -5.789282 6.844547 0.963253 -15.491973 12.771478 3.228724 4.788391 0.618901 0.701092 -8.670625 4.179307 -3.526228 0.222294 4.527870 3.258891 -0.054030 -0.161270 -0.124330 17.959124 -10.427934 2.802933 -20.935581 -0.203486 -15.053822 4.194891 -3.374652 0.572592 -0.098359 -3.541009 3.132197 -0.079650 0.380520 0.178660 -2.792328 -1.442006 -7.747113 0.605674 0.740520 3.391104 5.520521 -0.627470 10.744396 1.031742 1.885154 -15.237344 1.675124 -0.944488 37.516045 -1.825860 0.594810 2.381130 -22.583682 -25.320047 9.630740 -38.926744 -7.968097 -1.091661 -36.379517 -22.971755 4.650373 -3.859259 3.228540 0.093090 0.255770 -0.130740 0.127760 21.618746 24.945930 11.661584 37.647527 3.181707 -4.636585 26.091532 23.772407 2.346016 2.289108 -1.465403 -0.115160 0.128700 0.134510 0.011830 
0.227560 16.997880 -0.787260 -5.750254 6.729245 0.911785 -15.479489 12.826039 3.258722 4.544055 0.629006 0.625818 -8.712699 4.210201 -3.342557 0.221194 4.506854 3.262978 -0.051210 -0.153980 -0.126600 17.962308 -10.471141 2.772949 -19.980329 -0.162534 -15.391308 4.063795 -3.327891 0.979439 -0.081998 -3.428532 3.177300 -0.078200 0.378550 0.175970 -2.817788 -1.480455 -7.769337 1.068124 0.633145 3.791091 5.178509 -0.656138 10.803613 1.061162 1.618464 -15.356376 1.148261 -0.715914 37.577229 -1.675960 0.587230 2.210060 -22.749700 -25.599201 9.703659 -38.779885 -7.927879 -1.240012 -36.252031 -23.197810 4.645808 -3.848329 3.228718 0.094020 0.250270 -0.127090 0.129350 21.698653 25.400416 11.791499 37.504612 3.285981 -4.647515 26.047760 23.648890 2.309215 2.290799 -1.459786 -0.111910 0.131750 0.133610 0.015340 
